# xmcd CD database file
#
# Track frame offsets:
#	150
#	26882
#	51665
#	82360
#	107992
#	134967
#	176355
#	196292
#	223837
#
# Disc length: 3320 seconds
#
# Revision: 0
# Processed by: cddbd v1.5.2PL0 Copyright (c) Steve Scherf et al.
# Submitted via: CDex 1.70beta2
#
DISCID=970cf609
DTITLE=Ralf Timer Projekt - Sundowntale
DYEAR=1993
DGENRE=Jazz
TTITLE0=Avenue Musical
TTITLE1=Dark-Violet
TTITLE2=Serap
TTITLE3=Secrecy
TTITLE4=16 Bit-Bop
TTITLE5=Sundowntale
TTITLE6=Blue Comedy
TTITLE7=Winternight
TTITLE8=Snoopy's Dance
EXTD=YEAR: 1993
EXTT0=
EXTT1=
EXTT2=
EXTT3=
EXTT4=
EXTT5=
EXTT6=
EXTT7=
EXTT8=
PLAYORDER=
